<?xml version="1.0" encoding="utf-8"?>
<!-- Generator: Adobe Illustrator 27.5.0, SVG Export Plug-In . SVG Version: 6.00 Build 0)  -->
<svg version="1.1" id="Layer_1" xmlns="http://www.w3.org/2000/svg" xmlns:xlink="http://www.w3.org/1999/xlink" x="0px" y="0px"
	 viewBox="0 0 3000 2000" style="enable-background:new 0 0 3000 2000;" xml:space="preserve">
<rect style="fill:#FFFFFF;" width="3000" height="2000"/>
<g>
	<g>
		<g>
			<path style="fill:#163342;" d="M471.734,1655.951c0,0,7.645,18.649,14.087,26.041c6.442,7.39,31.118,20.602,31.251,42.554
				c0.144,23.804-41.592,17.197-57.918,16.327c-16.322-0.869-17.56-13.586-24.433-27.064c-6.874-13.479-13.797-11.195-15.089-22.066
				c-1.288-10.868,5.265-35.203,5.265-35.203L471.734,1655.951z"/>
		</g>
		<path style="fill:#EEA886;" d="M347.767,303.031c0,0,75.208-28.167,70.506,72.99c-4.701,101.155-22.327,111.435-71.798,97.308
			c-49.475-14.127-53.621-77.971-60.063-108.682C279.969,333.935,323.174,307.447,347.767,303.031z"/>
		<path style="fill:#E8734D;" d="M296.867,414.817c0,0-0.215-27.022,10.889-29.51c11.101-2.486,16.819,13.135,16.819,13.135
			l8.94-0.487c0,0-7.989-27.383,2.595-33.66c10.584-6.279,73.904-0.763,81.85-9.983c7.946-9.219-3.578-63.975-20.851-69.349
			c-17.278-5.374-64.467-16.275-94.435,10.736c0,0-26.068,0.503-27.113,21.989C274.517,339.171,287.833,400.165,296.867,414.817z"/>
		<path style="fill:#EEA886;" d="M320.321,373.834c-3.319-8.914-22.076-7.791-20.158,6.342c1.922,14.131,17.426,35.895,23.65,31.814
			C330.036,407.908,324.904,386.127,320.321,373.834z"/>
		<g>
			<path style="fill:#163342;" d="M173.597,1655.951c0,0-7.64,18.649-14.087,26.041c-6.443,7.39-31.118,20.602-31.251,42.554
				c-0.145,23.804,41.596,17.197,57.919,16.327c16.322-0.869,17.559-13.586,24.433-27.064c6.873-13.479,13.797-11.195,15.089-22.066
				c1.288-10.868-5.265-35.203-5.265-35.203L173.597,1655.951z"/>
		</g>
		<g>
			<path style="fill:#2F6B8C;" d="M172.889,1649.066l-1.511,11.996c0,0,26.042,8.866,50.313,0.497l-1.405-15.656L172.889,1649.066z"
				/>
		</g>
		<g>
			<path style="fill:#2F6B8C;" d="M472.082,1649.066l1.456,11.071c0,0-25.571,9.561-49.843,1.192l0.986-15.427L472.082,1649.066z"/>
		</g>
		<g>
			<path style="fill:#1D3B54;" d="M461.768,1348.621c0,29.348,21.81,302.826,21.81,302.826c-2.9,9.783-62.122,9.396-71.786,4.504
				c-9.668-4.892-37.06-276.758-38.845-306.348c-1.785-29.596-54.113-255.174-62.583-254.195
				c-8.475,0.979-36.661,244.992-43.424,267.492c-6.768,22.5-35.005,293.051-35.005,293.051
				c-27.971,5.713-68.702-1.293-68.702-1.293s5.034-279.579,6.247-287.848c1.792-12.237-0.082-45.222,4.834-118.421
				c4.4-65.481,20.295-208.044,30.375-285.247c0.36-2.745,0.701-5.388,1.037-7.911c1.973-15.026,3.453-26.067,4.161-31.362
				c0.31-2.29,0.478-3.51,0.478-3.51c2.712-1.264,5.554-2.431,8.513-3.508c70.788-25.741,207.319,1.507,207.319,1.507
				s0.078,0.678,0.231,1.957c0.184,1.551,0.466,3.984,0.834,7.133c0.787,6.81,1.957,16.944,3.303,28.708
				c0.008,0.085,0.02,0.17,0.028,0.255c0.039,0.352,0.082,0.717,0.121,1.076c4.764,41.869,11.496,103.173,10.866,109.551
				C440.612,1076.82,461.768,1319.273,461.768,1348.621z"/>
		</g>
		<g>
			<path style="fill:#EAD8CF;" d="M156.218,888.345c0,0-106.686-133.688-106.924-162.707c-0.109-13.414,18.71-58.137,34.973-79.157
				c5.355-6.928,11.066-13.84,16.769-20.486c0.008-0.016,0.024-0.022,0.024-0.022c22.772-26.516,45.456-48.542,45.456-48.542
				s58.455-70.365,99.601-32.014c0,0-1.206,25.778-13.574,45.285c-12.365,19.523-28.069,34.352-35.713,40.605
				c-7.637,6.246-76.112,79.047-77.184,82.428c-1.073,3.384,14.827,44.238,24.925,61.917c14.401,25.218,44.121,83.747,44.121,83.747
				L156.218,888.345z"/>
		</g>
		<g>
			<path style="fill:#EAD8CF;" d="M481.754,888.672c0,0,118.358-123.221,121.223-152.096c1.323-13.349-13.363-59.628-27.654-82.071
				c-4.705-7.395-9.766-14.809-14.839-21.956c-0.008-0.018-0.023-0.023-0.023-0.023c-20.272-28.518-40.864-52.558-40.864-52.558
				s-51.832-75.495-96.281-41.125c0,0-1.136,25.782,9.414,46.355c10.544,20.587,24.839,36.812,31.885,43.749
				c7.033,6.929,68.623,85.78,69.387,89.246c0.759,3.468-18.772,42.675-30.429,59.341c-16.627,23.776-50.262,80.651-50.262,80.651
				L481.754,888.672z"/>
		</g>
		<g>
			<path style="fill:#EEA987;" d="M378.979,499.262c0,0,12.251,2.787-39.686,52.078c0,0-36.026-40.464-34.774-47.288
				C305.775,497.229,378.979,499.262,378.979,499.262z"/>
		</g>
		<g>
			<path style="fill:#EAD8CF;" d="M484.573,552.11l-36.716,133.323c-11.782,40.365-18.44,80.941-20.428,116.464
				c-1.534,27.437-0.137,114.715-0.137,114.715s-50.935,18.923-134.069,13.612c0,0-90.418,22.958-83.126-32.527
				c19.293-146.878,0.423-207.436-2.102-222.179c0,0-12.138-71.337-20.827-131.107c25.165-9.482,132.656-46.06,132.656-46.06
				l58.306,0.644C378.129,498.996,460.128,523.656,484.573,552.11z"/>
		</g>
		<path style="fill:#385369;" d="M440.604,713.234c0,0-34.648-16.389-46.633-71.775l-122.276-1.347c0,0-36.586,73.604-56.329,77.531
			c0,0,3.848,80.812,1.381,112.027c-2.461,31.214-9.868,90.254-9.868,90.254s6.979,53.895,222.542,17.225
			c0,0-2.333-129.706-1.984-135.246C427.785,796.361,439.708,716.489,440.604,713.234z"/>
		<path style="fill:#385369;" d="M393.731,641.458c0,0,14.369-75.159,45.816-118.941c0,0-3.022-3.648-11.152-5.013
			c0,0-34.128,49.257-47.741,123.809C367.037,715.867,393.731,641.458,393.731,641.458z"/>
		<path style="fill:#385369;" d="M272.927,640.124c0,0-8.313-67.877-38.809-112.344c0,0,5.159-3.427,13.32-4.609
			c0,0,26.562,42.263,38.566,117.098C298.01,715.104,272.927,640.124,272.927,640.124z"/>
		<g>
			<path style="fill:#EEA987;" d="M306.159,503.58c0,0,12.862-12.856,0.775-63.646c-3.186-13.418,70.608,16.173,70.608,16.173
				s-0.59,11.108-0.524,22.243c0.023,4.992,0.188,9.972,0.591,13.981c0.301,3.011,0.744,5.461,1.366,6.925
				C382.287,506.979,333.199,523.17,306.159,503.58z"/>
		</g>
		<path style="fill:#385369;" d="M484.663,543.935c-30.691,9.005-32.03,126.512-32.03,126.512s-8.537,29.151-12.166,55.336
			c-3.37,24.362-7.049,186-7.589,210.811c0,0-29.658,19.288-110.619,17.812c0,0-84.547-5.909-120.491-20.058
			c2.689-23.661,6.666-60.072,9.21-84.916c1.918-18.75,3.565-35.964,4.231-45.82c2.047-30.406-8.944-138.378-8.944-138.378
			c12.752-109.208-9.515-126.667-9.515-126.667c14.756-9.815,103.319-33.472,103.319-33.472
			c17.841,78.475,40.712,94.045,40.712,94.045c33.071-33.264,49.319-96.262,49.319-96.262
			C446.049,513.985,484.663,543.935,484.663,543.935z"/>
		<path style="fill:#EEA886;" d="M461.35,858.375c0,0-3.86,4.254-8.424,4.688c-7.887,0.751-17.915-7.342-25.188,1.714
			c-7.268,9.058,14.162,42.128,20.886,45.565c6.724,3.435,20.052-5.386,32.961-26.319
			C494.499,863.092,461.35,858.375,461.35,858.375z"/>
		<path style="fill:#EEA886;" d="M430.615,862.115c0,0-15.253,7.433-31.207,17.937c-13.998,9.215-28.883,22.233-26.397,26.086
			c3.397,5.267,13.919-6.507,28.405-14.638c13.34-7.485,11.966-3.599,11.966-3.599s0.332-1.131-12.611,10.074
			c-13.915,12.047-28.707,26.811-25.697,30.299c1.887,2.191,1.915,2.646,7.668-0.83c-2.877,2.765-2.544,4.017-1.526,5.435
			c5.265,7.337,28.433-6.901,37.631-12.559c-7.042,4.394-11.739,8.43-5.805,10.804c6.783,2.713,38.629-19.016,50.779-25.612
			C477.069,898.314,430.615,862.115,430.615,862.115z"/>
		<path style="fill:#EEA886;" d="M178.572,860.132c0,0,3.867,4.267,8.447,4.702c7.911,0.751,17.97-7.367,25.262,1.718
			c7.292,9.083-14.205,42.252-20.949,45.699c-6.744,3.447-20.111-5.401-33.059-26.396
			C145.324,864.86,178.572,860.132,178.572,860.132z"/>
		<path style="fill:#EEA886;" d="M209.396,863.882c0,0,15.3,7.454,31.301,17.988c14.041,9.245,28.965,22.3,26.476,26.165
			c-3.405,5.283-13.962-6.527-28.492-14.682c-13.378-7.507-12.001-3.611-12.001-3.611s-0.333-1.133,12.651,10.106
			c13.958,12.083,28.789,26.89,25.775,30.388c-1.898,2.197-1.922,2.654-7.695-0.831c2.888,2.773,2.552,4.029,1.534,5.451
			c-5.285,7.361-28.52-6.921-37.745-12.596c7.061,4.405,11.77,8.456,5.824,10.837c-6.807,2.722-38.747-19.073-50.932-25.689
			C162.802,900.188,209.396,863.882,209.396,863.882z"/>
		<path style="fill:#EAD8CF;" d="M188.69,859.399c0,0-7.872,14.531-32.472,28.946c0,0-49.882-61.861-72.601-97.902h69.129
			C152.746,790.443,183.288,846.831,188.69,859.399z"/>
		<path style="fill:#EAD8CF;" d="M453.31,858.185c0,0,4.25,17.217,28.444,30.487c0,0,66.428-73.001,74.002-82.123l-58.173-20.163
			C497.583,786.386,466.86,833.922,453.31,858.185z"/>
		<path style="fill:#A77860;" d="M377.609,492.331c-43.906-0.575-58.021-34.361-58.447-35.415
			c23.133,23.719,57.856,21.435,57.856,21.435C377.041,483.342,377.206,488.322,377.609,492.331z"/>
		<path style="fill:#D1C1B9;" d="M377.609,492.331c0,0-8.369,10.692-31.239,20.361l10.275,22.706l29.353-33.892L377.609,492.331z"/>
		<path style="fill:#D1C1B9;" d="M310.7,492.707c0,0,8.462,13.589,35.67,19.985l-12.06,25.832l-31.176-34.682L310.7,492.707z"/>
	</g>
	<g>
		<rect x="1871.002" y="1092.65" style="fill:#CFBEB8;" width="33.922" height="526.692"/>
		<rect x="1191.631" y="1092.65" style="fill:#CFBEB8;" width="33.921" height="526.692"/>
		<rect x="1120.114" y="1245.014" style="fill:#D88A51;" width="853.767" height="131.018"/>
		<rect x="1120.855" y="1245.014" style="fill:#D88A51;" width="851.637" height="102.273"/>
		<rect x="1117.974" y="1011.192" style="fill:#B57341;" width="851.637" height="144.561"/>
		<g>
			<path style="fill:#464B7A;" d="M1520.059,1664.194c0,0,17.847,22.698,39.402,32.913c17.041,8.079,43.718,20.677,43.477,35.343
				c-0.24,14.668-65.045,12.041-92.457-1.183c-27.409-13.224-43.278-16.646-47.366-27.799c-4.087-11.151,6.434-40.363,6.247-43.88
				C1469.131,1655.246,1520.059,1664.194,1520.059,1664.194z"/>
		</g>
		<g>
			<path style="fill:#EEA886;" d="M1520.523,1651.554c0,0-0.329,14.954-0.785,15.194c-0.455,0.24-46.629,4.653-49.647-4.606
				c-2.648-8.114-2.31-17.717-2.31-17.717L1520.523,1651.554z"/>
		</g>
		<g>
			<path style="fill:#464B7A;" d="M1751.746,1627.015c0,0,17.851,22.698,39.402,32.913c17.041,8.077,49.261,17.873,49.021,32.541
				c-0.24,14.666-68.939,15.534-92.108-4.197c-19.262-16.398-49.167-10.831-53.255-21.982c-4.087-11.152,7.057-40.214,6.865-43.728
				C1701.444,1618.218,1751.746,1627.015,1751.746,1627.015z"/>
		</g>
		<g>
			<path style="fill:#EEA886;" d="M1752.21,1614.374c0,0-0.325,14.954-0.785,15.195c-0.455,0.239-48.443,5.057-49.646-4.607
				c-0.928-7.453,1.073-17.261,1.073-17.261L1752.21,1614.374z"/>
		</g>
		<g>
			<path style="fill:#323657;" d="M1575.575,1162.896c0,0,110.012,47.674,128.659,60.26c18.644,12.586,83.921,43.874,92.218,73.62
				c8.297,29.749,4.925,75.362-6.516,121.7c-11.441,46.339-35.392,186.153-33.676,202.743c0,0-37.8,8.698-62.397-5.602
				c0,0-0.094-191.271,2.766-206.715c2.859-15.447-2.029-62.356-23.613-72.082c-21.58-9.724-125.698-35.467-139.425-39.473
				c-13.731-4.005-44.051-6.292-44.051-6.292s-83.4-66.361-80.317-92.103C1412.31,1173.209,1427.858,1147.202,1575.575,1162.896z"/>
		</g>
		<g>
			<path style="fill:#323657;" d="M1495.112,1180.495c0,0,47.296,102.399,55.215,129.859c7.923,27.459,18.095,48.01,16.379,78.328
				c-1.713,30.32-18.611,105.445-24.407,132.346c-5.755,26.694-18.473,135.981-18.473,135.981s-41.058,5.62-61.654-4.105
				c0,0-0.606-124.59-4.038-158.343c-3.433-33.753-2.977-105.261-2.977-114.987c0-9.725-71.711-75.754-78.007-92.344
				c-6.292-16.59-11.75-75.451-4.884-94.33C1379.126,1174.022,1378.199,1141.594,1495.112,1180.495z"/>
		</g>
		<g>
			<path style="fill:#5C64A1;" d="M1577.52,828.88c0,0,18.81,10.08,27.201,28.895c8.391,18.816,10.851,19.526,15.256,59.754
				c2.058,18.796,3.559,57.812,4.323,75.866c0.761,18.054,25.468,60.246,25.212,63.299c0,0-49.123,17.327-51.149,39.341
				c-2.025,22.011-28.213-20.352-28.213-20.352S1548.558,826.06,1577.52,828.88z"/>
		</g>
		<g>
			<path style="fill:#EEA886;" d="M1526.404,645.462c0,0,43.16,12.336,32.676,92.555c-11.571,88.484-74.754,64.836-90.774,48.437
				c-16.02-16.4-28.604-51.872-29.368-78.568C1438.177,681.188,1443.261,609.23,1526.404,645.462z"/>
		</g>
		<g>
			<path style="fill:#5C64A1;" d="M1438.917,816.966c0,0-59.095,4.957-69.011,12.205c-9.919,7.246-56.83,29.367-69.799,38.139
				c-12.966,8.773-80.24,51.606-93.824,67.699c-13.841,16.401-31.272,34.898-25.554,50.916
				c5.723,16.018,62.552,61.788,76.283,70.558c13.73,8.772,52.014,43.077,52.014,43.077s36.754-17.708,33.705-31.057
				c-3.055-13.351-68.177-69.61-73.896-78.001c-5.723-8.391-15.256-11.823-4.58-20.978c10.68-9.153,84.291-49.962,86.198-48.055
				c1.908,1.905,17.546,35.469,20.214,44.242c2.668,8.772,15.39,98.08,15.39,98.08l-11.819,116.703
				c0,0,162.359,23.138,218.619-10.043c0,0-8.224-82.313-7.463-89.558c0.765-7.248,22.882-117.086,22.886-137.686
				c0.004-47.675-14.873-103.36-28.986-113.275c-14.113-9.917-96.496-16.781-96.496-16.781L1438.917,816.966z"/>
		</g>
		<g>
			<path style="fill:#EEA886;" d="M1423.108,818.533c0,0,17.175,94.544,82.956,102.937c65.781,8.391,44.255-99.884,44.255-99.884
				S1504.662,802.176,1423.108,818.533z"/>
		</g>
		<g>
			<path style="fill:#EEA886;" d="M1453.684,847.859c0,0,7.264-62.306-1.334-86.052c-8.594-23.742,68.21,33.781,68.21,33.781
				s-0.025,1.842-0.037,4.813c-0.017,2.967-0.021,7.063,0.024,11.575c0.102,11.632,0.5,26.038,1.789,31.048
				C1524.627,851.929,1453.684,847.859,1453.684,847.859z"/>
		</g>
		<g>
			<path style="fill:#EB4747;" d="M1561.959,703.5c0,0-1.48-29.557-38.097-23.457c-36.616,6.103-71.894,34.723-72.179,80.293
				c0,0-50.631-82.835-10.457-117.161C1481.402,608.848,1561.959,623.215,1561.959,703.5z"/>
		</g>
		<g>
			<path style="fill:#272A45;" d="M1514.528,682.101c0,0,39.402,37.8,50.461,38.753
				C1564.989,720.854,1571.053,666.039,1514.528,682.101z"/>
		</g>
		<g>
			<path style="fill:#A77860;" d="M1520.548,811.977c0,0-29.73,3.589-52.23-25.513c0.562,0.557,21.938,21.432,52.202,13.938h0.004
				C1520.507,803.369,1520.548,811.977,1520.548,811.977z"/>
		</g>
		<path style="fill:#EEA886;" d="M1462.254,720.854c-2.509-8.01-11.786-18.811-16.089-6.861
			c-4.299,11.947,7.586,39.19,12.632,35.367C1463.849,745.535,1466.87,735.599,1462.254,720.854z"/>
		<polygon style="fill:#CFBEB8;" points="1425.728,1215.631 1634.179,1193.073 1540.014,1263.914 		"/>
		<polygon style="fill:#EDDAD3;" points="1540.014,1263.914 1425.728,1227.899 1425.728,1215.631 1543.865,1250.671 		"/>
		<path style="fill:#444A78;" d="M1586.171,1097.022c0,0-0.781-16.72,0.459-23.459c1.241-6.739,21.157-112.665,21.353-124.948
			c0,0,3.677,90.333-11.025,153.759C1582.25,1165.801,1586.171,1097.022,1586.171,1097.022z"/>
		<polygon style="fill:#EDDAD3;" points="1540.014,1263.914 1600.792,1054.95 1831.926,1032.39 1768.58,1224.733 		"/>
		<path style="fill:#C7B7B1;" d="M1710.714,1146.763c-4.507,11.942-13.609,19.567-20.324,17.031
			c-6.719-2.536-8.508-14.273-3.998-26.215c4.507-11.941,13.609-19.567,20.323-17.03
			C1713.434,1123.086,1715.224,1134.822,1710.714,1146.763z"/>
		<path style="fill:#EEA886;" d="M1342.335,1070.106c0,0,5.637,12.573,14.678,20.474c9.037,7.902,16.171,28.289,16.753,35.341
			c0.578,7.053,8.403,60.148,6.178,64.612c-2.225,4.462-9.322-2.63-9.838-7.805c-0.521-5.174-8.793-49.326-8.793-49.326
			s6.89,53.11,4.152,56.799c-2.741,3.69-9.24,3.868-12.278-3.302c0,0-10.139,5.813-12.482-7.185l-4.754-25.901
			c0,0,0.114,13.802-6.393,5.199c-3.461-4.573-5.41-34.343-7.646-40.143c-2.233-5.802-3.071-27.787-3.071-27.787L1342.335,1070.106z
			"/>
		<path style="fill:#5C64A1;" d="M1309.026,1099.561c0,0,32.378-15.049,36.954-27.929c0,0-1.602-10.585-62.613-66.322
			L1309.026,1099.561z"/>
	</g>
	<g>
		<path style="fill:#EEA886;" d="M2447.515,1557.702l-8.382,20.291c0,0-26.688-6.395-31.542-20.291l9.265-16.541L2447.515,1557.702z
			"/>
		<polygon style="fill:#EEA886;" points="2843.438,1630.16 2848.398,1653.319 2813.659,1664.897 2803.404,1638.431 		"/>
		<g>
			<path style="fill:#494F80;" d="M2649.67,1072.307c2.585,8.854,17.533,45.576,34.242,86.369v0.008
				c15.238,37.192,31.941,77.757,42.085,103.692c3.786,9.676,6.659,17.312,8.204,21.97c10.211,30.847,5.513,80.892,6.023,122.358
				c0.503,41.474,61.523,238.709,61.523,238.709c10.878,4.051,45.299-11.836,45.299-11.836
				c-4.785-21.818-28.668-264.507-25.759-280.919c2.907-16.416,2.117-61.381-3.479-78.525c-1.145-3.522-1.944-8.224-2.497-13.919
				c-2.121-22.032-0.499-58.868-0.928-99.085c-0.536-50.613-30.133-174.185-33.821-185.145c-0.341-1.014-0.863-2.423-1.528-4.164
				c-6.555-17.132-27.127-65.632-27.127-65.632c-34.431-7.311-59.896-7.092-78.489-1.722c-24.612,7.096-37.18,23.218-42.526,42.836
				C2618.093,994.115,2646.319,1060.815,2649.67,1072.307z"/>
		</g>
		<g>
			<path style="fill:#494F80;" d="M2412.224,1541.822l37.937,23.379c22.059-27.351,152.713-193.474,163.256-214.285
				c10.542-20.807,23.631-61.808,25.136-77.162c0.271-2.744,0.92-7.351,1.898-13.316c3.771-23.129,12.338-66.606,21.798-100.174
				c1.762-6.263,3.556-12.181,5.358-17.555c9.652-28.804,20.694-129.36,26.577-188.558c2.618-26.345,4.217-44.495,4.217-44.495
				s-0.542-0.524-1.556-1.46c-11.785-10.877-95.052-102.209-128.899-50.104c-8.939,13.762-20.885,42.253-25.457,58.195
				c-14.012,48.852-27.033,104.71-15.379,155.206c12.913,55.948,20.501,75.088,28.992,152.575
				c2.766,25.242-5.119,59.987-11.789,69.334c-18.796,26.347-36.805,48.445-78.926,143.777
				C2451.682,1468.187,2412.224,1541.822,2412.224,1541.822z"/>
		</g>
		<g>
			<g>
				<g>
					<path style="fill:#E8734D;" d="M2709.977,272.199c0,0,48.403,23.676,36.437,88.086c-11.968,64.411-17.264,73.088-3.877,98.255
						c13.386,25.168,29.184,132.528,17.134,152.877c-12.048,20.346-149.127-89.425-168.136-181.524
						c-19.011-92.103,12.047-133.064,23.024-148.325C2625.536,266.308,2667.244,250.511,2709.977,272.199z"/>
				</g>
			</g>
		</g>
		<g>
			<polygon style="fill:#51578C;" points="2739.309,458.22 2661.821,388.733 2706.314,351.561 2776.16,424.711 			"/>
		</g>
		<g>
			<polygon style="fill:#3E3B42;" points="2737.184,451.003 2670.123,390.867 2708.63,358.692 2769.076,422 			"/>
		</g>
		<g>
			<path style="fill:#E3A080;" d="M2783.472,459.559c0,0-11.705-2.712-8.188-15.926c3.517-13.218-1.871-16.287-1.871-16.287
				l-41.004,37.121c0,0,19.747,18.119,25.759,18.866C2764.182,484.081,2789.487,466.8,2783.472,459.559z"/>
		</g>
		<g>
			<path style="fill:#E3A080;" d="M2732.408,464.467c0,0-24.767-15.108-27.098-17.363c-2.331-2.25-13.397-12.314-17.92-18.263
				c-4.525-5.95,14.855-6.373,20.085-0.192c5.229,6.181,10.85,7.328,14.488,8.706c3.64,1.378,23.48,5.292,27.812,11.394
				C2754.106,454.85,2732.408,464.467,2732.408,464.467z"/>
		</g>
		<g>
			<path style="fill:#E3A080;" d="M2765.768,419.283c0,0-2.98,3.656-5.334-0.603c-2.354-4.262-2.12-14.044,3.906-11.664
				C2770.367,409.4,2765.768,419.283,2765.768,419.283z"/>
		</g>
		<g>
			<path style="fill:#E3A080;" d="M2758.179,406.292c0,0-1.072,7.229-4.805,3.957c-3.734-3.272-7.431-15.406-0.906-15.065
				C2758.992,395.521,2758.179,406.292,2758.179,406.292z"/>
		</g>
		<g>
			<path style="fill:#E3A080;" d="M2747.552,395.693c0,0-0.02,8.728-4.351,6.196c-3.263-1.906-7.883-17.641-1.36-17.304
				C2748.366,384.925,2747.552,395.693,2747.552,395.693z"/>
		</g>
		<g>
			<path style="fill:#FFCA55;" d="M2870.527,613.524c-18.277-0.357-38.551-2.051-59.17-5.147
				c-6.883-1.022-13.803-2.211-20.697-3.574c-32.875-6.392-65.232-16.423-90.482-30.4c-70.446-38.961-34.542-92.044-12.149-85.292
				c22.22,6.708,118.55,48.421,120.061,49.071l-60.652-57.08l37.889-34.009l118.327,109.802
				C2926.706,572.735,2889.716,613.896,2870.527,613.524z"/>
		</g>
		<path style="fill:#C49C41;" d="M2811.357,608.377c-6.883-1.022-13.803-2.211-20.697-3.574l-33.272-70.09
			C2757.388,534.713,2802.741,561.169,2811.357,608.377z"/>
		<path style="fill:#323657;" d="M2607.666,784.758c-7.766,34.076-21.455,69.076-43.39,103.622c0,0-52.369,11.887-70.77-22.792
			c-7.25-13.656-8.452-55.608-3.066-107.943c8.28-80.584,32.213-185.775,73.836-250.127
			C2564.276,507.518,2641.29,637.463,2607.666,784.758z"/>
		<path style="fill:#323657;" d="M2607.666,784.758c-7.766,34.076-21.455,69.076-43.39,103.622c0,0-52.369,11.887-70.77-22.792
			c-7.25-13.656-8.452-55.608-3.066-107.943L2607.666,784.758z"/>
		<g>
			<path style="fill:#EDDAD3;" d="M2685.643,488.512c0,0,31.352,14.803,42.237,16.979c10.885,2.181,53.12,57.04,60.523,77.073
				c7.401,20.028,0,50.073-15.239,85.339c-15.24,35.27-0.871,47.028-7.838,82.298c-6.968,35.266-6.962,131.416-5.656,151.01
				c1.307,19.593-190.988,68.555-231.483,32.851c0,0,26.987-94.455,49.069-142.301c4.256-9.218,6.499-50.269,1.71-62.461
				c-4.791-12.192-58.782-103.195-58.782-103.195s-11.159-90.788,12.398-109.082c20.465-15.892,83.435-23.074,93.449-26.557
				C2636.047,486.981,2665.178,485.462,2685.643,488.512z"/>
		</g>
		<g>
			<path style="fill:#FFCA55;" d="M2773.164,667.898c-15.236,35.27-0.871,47.032-7.838,82.302
				c-6.97,35.27-6.956,131.42-5.656,151.01c1.313,19.589-190.988,68.563-231.483,32.851c0,0,10.538-36.887,23.835-76.239
				c1.644-4.857,3.325-9.766,5.043-14.635c6.6-18.796,13.617-37.172,20.191-51.427c4.256-9.222,6.501-50.269,1.704-62.461
				c-4.783-12.197-58.772-103.195-58.772-103.195s-11.163-90.788,12.391-109.079c8.047-6.247,22.658-11.151,38.041-15.018
				c5.777-1.444,11.678-2.748,17.371-3.91c17.689-3.656,33.439-6.036,38.041-7.632c10.008-3.484,39.145-5.002,59.617-1.949
				c0,0,31.344,14.795,42.226,16.979c10.893,2.168,53.13,57.04,60.525,77.061C2795.809,602.588,2788.399,632.632,2773.164,667.898z"
				/>
		</g>
		<g>
			<path style="fill:#EEA886;" d="M2688.267,451.328c0,0-7.941,42.347,11.911,71.949c0,0-37.094,37.94-74.146-32.811
				c0,0,15.592-29.16,3.856-68.897C2618.154,381.833,2688.267,451.328,2688.267,451.328z"/>
		</g>
		<path style="fill:#EEA886;" d="M2601.033,495.533c0,0,39.399,63.968,83.905,61.275c61.607-3.73,29.101-58.05,29.101-58.05
			s-23.11-9.214-27.428-10.047c-4.315-0.83-60.182,0.951-60.182,0.951L2601.033,495.533z"/>
		<path style="fill:#323657;" d="M2686.691,756.788c-6.096,36.444-22.277,63.62-48.124,80.756
			c-24.817,16.462-53.84,20.549-76.548,20.549c-3.495,0-6.846-0.098-9.998-0.27c1.644-4.857,3.325-9.766,5.043-14.635
			c21.234,0.587,49.926-2.345,73.444-17.962c22.251-14.792,36.273-38.64,41.659-70.869c11.494-68.794-1.129-131.427-37.489-186.166
			c-27.258-41.024-63.741-65.972-64.06-66.184c0,0,5.655-2.943,17.359-3.922c0,0,0.012,0,0.012,0.012
			c1.459,0.967,29.734,18.216,58.576,61.396C2673.234,599.425,2701.843,666.058,2686.691,756.788z"/>
		<g>
			<g>
				<g>
					<g>
						<g>
							<path style="fill:#EEA886;" d="M2696.86,801.988c0,0-5.634,1.812-8.483,1.405c0,0-5.128-1.143-8.823-1.738
								c-1.174-0.18-2.199-0.317-2.87-0.333c-2.809-0.074-8.991,0.603-15.685-1.468c-6.683-2.067-33.23-18.404-33.23-18.404
								l4.756-16.854l2.203-16.416c0,0,41.619-10.282,48.073-9.077c0.631,0.122,1.247,0.263,1.816,0.442
								c5.366,1.55,8.705,4.959,11.43,6.09c0.996,0.423,10.628,5.292,11.343,8.439c0.998,4.364-0.083,7.793-2.206,10.009
								c0,0,1.573,8.63-1.291,13.797c0,0,1.708,7.918-3.686,13.327C2700.207,791.208,2701.039,799.436,2696.86,801.988z"/>
						</g>
					</g>
				</g>
			</g>
		</g>
		<g>
			<path style="fill:#FFCA55;" d="M2576.833,507.511c0,0-41.081-7.097-63.517,29.453c-25.674,41.826-25.246,61.068-29.207,82.173
				c-3.74,19.931-16.011,52.022-17.566,57.62c-1.554,5.597-31.355,62.629-19.015,86.791
				c12.408,24.287,182.567,27.027,183.951,32.143c0.88,3.252,8.953-50.852,8.953-50.852s-57.349-8.587-75.137-10.118
				c-21.248-1.832-40.789-14.021-38.006-24.412c6.13-22.89,20.354-54.923,26.063-65.785
				C2559.063,633.662,2609.486,523.12,2576.833,507.511z"/>
		</g>
		<path style="fill:#213A70;" d="M2824.538,1658.89c0,0,12.793-11.379,19.182-12.725c6.39-1.343,12.44-1.007,15.13,2.019
			c2.69,3.026,10.446,15.128,14.638,18.827c4.192,3.698,34.116,32.616,41.177,34.632c7.062,2.019,37.658,0.336,35.977,18.157
			c-1.682,17.82-26.561,25.555-70.944,21.52c-44.383-4.035-39.003-14.459-63.885-19.837c-24.88-5.382-26.562-17.82-22.19-32.952
			c4.372-15.133,18.032-29.478,16.212-33.509C2808.013,1650.986,2824.538,1658.89,2824.538,1658.89z"/>
		<path style="fill:#213A70;" d="M2416.362,1564.45c0,0,15.563-0.094,24.046,4.067c8.482,4.157,5.2,9.026,5.922,13.198
			c0.723,4.169,7.293,44.034,10.359,52.05c3.066,8.017,20.159,22.667,11.2,35.286c-8.957,12.615-36.372,7.021-65.371-10.732
			c-29.002-17.755-31.3-53.122-33.339-61.788c-2.039-8.666,33.148-42.805,39.382-43.529
			C2414.795,1552.277,2416.362,1564.45,2416.362,1564.45z"/>
		<g>
			<g>
				<g>
					<path style="fill:#EEA987;" d="M2702.959,279.338c0,0,70.279,22.091,32.127,143.373
						c-38.151,121.283-134.135-14.055-124.095-87.95C2621.03,260.868,2702.959,279.338,2702.959,279.338z"/>
				</g>
			</g>
		</g>
		<g>
			<g>
				<g>
					<path style="fill:#E8734D;" d="M2742.268,350.109c0,0-34.921,34.268-93.363,38.554c0,0-22.459,26.334-24.185,36.671
						c0,0-52.144-88.881,11.954-142.16C2700.769,229.896,2765.829,328.155,2742.268,350.109z"/>
				</g>
			</g>
		</g>
		<g>
			<g>
				<g>
					<path style="fill:#EEA987;" d="M2650.079,391.074c-0.452-8.826-5.889-28.913-19.009-23.292
						c-13.118,5.624,0.805,46.531,9.506,44.014C2640.576,411.795,2651.151,411.96,2650.079,391.074z"/>
				</g>
			</g>
		</g>
	</g>
	<g>
		<path style="fill:#323657;" d="M2157.171,792.124c-7.394,32.442-20.426,65.759-41.306,98.643c0,0-49.852,11.316-67.369-21.698
			c-6.9-12.997-8.046-52.936-2.92-102.753c7.883-76.712,30.666-176.849,70.289-238.112
			C2115.865,528.204,2189.178,651.907,2157.171,792.124z"/>
		<path style="fill:#323657;" d="M2157.171,792.124c-7.394,32.442-20.426,65.759-41.306,98.643c0,0-49.852,11.316-67.369-21.698
			c-6.9-12.997-8.046-52.936-2.92-102.753L2157.171,792.124z"/>
		<path style="fill:#163342;" d="M2270.419,422.518c0,0,52.011,109.659,16.209,116.215c-49.157,9.004-69.045-81.821-69.045-81.821
			L2270.419,422.518z"/>
		<path style="fill:#EEA886;" d="M2356.42,940.4c0,0-2.137,12.682-6.356,25.712c-2.056,6.356-1.175,47.334-0.67,52.617
			c0.423,4.429,3.237,1.656,4.596-1.345c0.778-1.722,2.748-16.002,4.99-23.654c1.879-6.425,3.659-8.883,4.873-6.892
			c1.218,1.99,4.556,28.188,2.708,39.542c-1.843,11.353,1.966,37.119,7.691,33.08c5.727-4.039,17.219-51.557,15.168-69.131
			c-2.048-17.574-9.461-39.362-9.461-39.362L2356.42,940.4z"/>
		<path style="fill:#EDDAD3;" d="M2348.768,950.313c-0.501-5.568-26.123-89.332-30.874-114.472
			c-4.756-25.14-8.697-48.127-11.379-58.167c-0.176-0.662-0.454-1.813-0.817-3.354c-1.75-7.423-5.488-23.977-9.535-39.503
			c-0.285-1.087-0.571-2.167-0.857-3.243l0.06-5.748c-2.866-10.764,1.8-16.251,2.81-24.452c0.302-2.462,0.274-5.17-0.391-8.337
			c-0.02-0.116-0.044-0.231-0.071-0.342c-3.17-14.369-5.362-26.851-5.292-33.716c0.231-22.804-20.341-132.577-20.341-132.577
			s39.774,13.531,52.038,35.914c12,21.909,14.137,74.317,14.584,85.446c0.441,11.13,7.299,104.162,8.774,123.091
			c1.48,18.924,3.813,35.084,7.578,47.916c3.766,12.833,29.203,124.39,29.348,134.463
			C2384.433,955.175,2349.265,955.88,2348.768,950.313z"/>
		<path style="fill:#EEA886;" d="M2123.82,871.432c0,0-34.014,44.223-43.238,96.689c-9.226,52.465,5.447,228.557,5.047,254.489
			c-0.401,25.931-24.523,90.457-19.699,139.305c4.823,48.848,45.066,294.761,45.066,294.761l31.675-5.84
			c0,0-3.773-255.15-0.758-275.654c3.017-20.504,9.067-95.241,10.272-103.685c1.208-8.442,76.568-230.135,76.568-267.961
			C2228.754,965.708,2205.836,809.72,2123.82,871.432z"/>
		<path style="fill:#EEA886;" d="M2294.687,888.72c0,0,55.882,213.279,62.517,242.829c6.634,29.55,16.243,53.919,16.243,66.465
			c0,29.111-10.814,75.856-10.814,75.856l-88.6,348.415l-33.9,7.582c0,0,21.61-220.217,22.619-260.033
			c1.018-39.902,31.736-96.566,25.704-113.452c-6.031-16.886-97.091-211.672-97.091-211.672S2122.416,826.807,2294.687,888.72z"/>
		<path style="fill:#E8734D;" d="M2373.446,1198.014c0,0-129.255,55.496-321.706,55.496c0,0,8.445-250.725,36.423-313.521
			c27.979-62.798,210.981-34.546,210.981-34.546S2373.446,1145.402,2373.446,1198.014z"/>
		<g>
			<path style="fill:#EDDAD3;" d="M2231.399,510.111c0,0,29.846,14.093,40.206,16.165c10.364,2.072,50.569,54.3,57.615,73.368
				c7.049,19.065,0,47.668-14.506,81.241c-14.51,33.575-0.829,44.768-7.46,78.341c-6.635,33.575-6.627,125.104-5.386,143.757
				c1.244,18.653-181.812,65.262-220.36,31.272c0,0,25.69-89.919,46.711-135.463c4.052-8.778,6.187-47.856,1.629-59.461
				c-4.56-11.607-55.958-98.238-55.958-98.238s-10.623-86.423,11.803-103.841c19.482-15.128,79.427-21.964,88.96-25.28
				C2184.186,508.655,2211.919,507.211,2231.399,510.111z"/>
		</g>
		<g>
			<path style="fill:#EDDAD3;" d="M2314.715,680.881c-14.502,33.573-0.829,44.773-7.46,78.347
				c-6.635,33.573-6.623,125.104-5.386,143.753c1.248,18.651-181.812,65.268-220.36,31.274c0,0,10.032-35.115,22.69-72.577
				c1.565-4.624,3.164-9.296,4.799-13.933c6.284-17.889,12.963-35.383,19.222-48.953c4.054-8.781,6.19-47.856,1.625-59.463
				c-4.556-11.607-55.95-98.234-55.95-98.234s-10.627-86.427,11.795-103.839c7.662-5.943,21.568-10.615,36.213-14.294
				c5.502-1.378,11.118-2.617,16.535-3.725c16.841-3.482,31.836-5.746,36.214-7.265c9.528-3.317,37.264-4.765,56.756-1.857
				c0,0,29.838,14.085,40.194,16.164c10.368,2.066,50.578,54.302,57.619,73.36C2336.273,618.708,2329.221,647.308,2314.715,680.881z
				"/>
		</g>
		<g>
			<path style="fill:#EEA886;" d="M2245.643,475.675c0,0-5.953,54.747-4.708,72.571c0,0-31.012,31.076-66.281-36.274
				c0,0,14.84-27.76,3.671-65.586C2167.153,408.56,2245.643,475.675,2245.643,475.675z"/>
		</g>
		<path style="fill:#EEA987;" d="M2154.023,372.959c0,0-6.842-8.218-9.394,0.057c-2.552,8.276,5.807,32.874,6.727,36.436
			c0,0,4.146,13.805,5.803,12.043C2158.814,419.735,2154.023,372.959,2154.023,372.959z"/>
		<path style="fill:#EEA987;" d="M2273.555,373.981c0,0,6.846-8.218,9.394,0.059c2.552,8.276-5.805,32.874-6.725,36.436
			c0,0-4.148,13.805-5.805,12.042C2268.764,420.756,2273.555,373.981,2273.555,373.981z"/>
		<path style="fill:#EEA987;" d="M2224.526,294.304c0,0,62.806,9.669,53.611,108.598c-9.194,98.929-64.621,91.076-68.328,90.994
			c-3.703-0.083-55.606,2.057-60.098-118.658C2149.712,375.237,2147.618,285.968,2224.526,294.304z"/>
		<path style="fill:#163342;" d="M2161.758,369.323c0,0,69.704,20.729,103.076,14.101c0,0,2.129,12.312,6.924,13.069
			c4.791,0.758,7.241-23.533,7.241-23.533s1.632-80.448-71.144-81.206c-72.776-0.758-57.99,87.137-57.99,87.137l0.99,15.022
			C2150.855,393.914,2161.28,398.029,2161.758,369.323z"/>
		<path style="fill:#A77860;" d="M2185.113,484.452c0,0,21.991,20.837,55.821,1.715c0,0-9.993,16.695-28.957,16.275
			C2193.016,502.019,2185.113,484.452,2185.113,484.452z"/>
		<path style="fill:#EEA886;" d="M2150.828,516.755c0,0,37.534,60.937,79.902,58.373c58.645-3.55,27.762-53.203,27.762-53.203
			s-14.595-8.37-18.705-9.161c-4.105-0.791-64.755-1.558-64.755-1.558L2150.828,516.755z"/>
		<path style="fill:#323657;" d="M2232.397,765.498c-5.804,34.695-21.206,60.562-45.811,76.875
			c-23.625,15.672-51.255,19.561-72.87,19.561c-3.329,0-6.518-0.094-9.518-0.256c1.565-4.624,3.164-9.296,4.799-13.933
			c20.214,0.562,47.528-2.231,69.916-17.097c21.185-14.083,34.531-36.785,39.659-67.461c10.94-65.491-1.077-125.118-35.688-177.224
			c-25.949-39.049-60.679-62.802-60.982-63.001c0,0,5.384-2.803,16.523-3.736c0,0,0.012,0,0.012,0.011
			c1.39,0.922,28.309,17.342,55.763,58.448C2219.587,615.696,2246.821,679.13,2232.397,765.498z"/>
		<g>
			<g>
				<g>
					<g>
						<g>
							<path style="fill:#EEA886;" d="M2242.077,808.526c0,0-5.362,1.726-8.075,1.336c0,0-4.881-1.088-8.399-1.652
								c-1.115-0.174-2.094-0.301-2.732-0.317c-2.673-0.072-8.56,0.573-14.928-1.399c-6.364-1.965-31.636-17.52-31.636-17.52
								l4.526-16.044l2.099-15.629c0,0,39.618-9.787,45.764-8.641c0.599,0.118,1.186,0.252,1.729,0.423
								c5.108,1.476,8.286,4.72,10.878,5.799c0.951,0.403,10.121,5.038,10.799,8.034c0.951,4.155-0.078,7.42-2.103,9.525
								c0,0,1.499,8.22-1.225,13.136c0,0,1.624,7.537-3.511,12.689C2245.264,798.267,2246.058,806.097,2242.077,808.526z"/>
						</g>
					</g>
				</g>
			</g>
		</g>
		<g>
			<path style="fill:#EDDAD3;" d="M2127.816,528.201c0,0-39.105-6.758-60.463,28.035c-24.441,39.816-24.034,58.136-27.804,78.227
				c-3.56,18.974-15.241,49.521-16.723,54.85c-1.479,5.329-29.851,59.621-18.101,82.621c11.813,23.119,173.793,25.729,175.11,30.597
				c0.84,3.1,8.525-48.406,8.525-48.406s-54.594-8.175-71.528-9.635c-20.225-1.743-38.828-13.345-36.18-23.236
				c5.836-21.792,19.376-52.285,24.812-62.624C2110.902,648.289,2158.902,543.056,2127.816,528.201z"/>
		</g>
		<path style="fill:#EDDAD3;" d="M2249.557,1626.664c0,0,12.181-10.834,18.26-12.113c6.082-1.28,11.844-0.961,14.404,1.919
			c2.563,2.882,9.945,14.404,13.934,17.925c3.992,3.521,32.479,31.047,39.2,32.969c6.721,1.92,35.849,0.319,34.248,17.283
			c-1.601,16.965-25.285,24.325-67.538,20.485c-42.249-3.841-37.125-13.764-60.813-18.885
			c-23.685-5.122-25.285-16.964-21.125-31.368c4.161-14.401,20.937-28.733,19.202-32.572
			C2237.6,1618.469,2249.557,1626.664,2249.557,1626.664z"/>
		<path style="fill:#EDDAD3;" d="M2117.444,1654.077c0,0,13.492-6.122,22.479-5.801c8.987,0.321,8.024,5.828,10.272,9.175
			c2.247,3.344,23.432,35.443,29.209,41.221c5.777,5.777,26.322,11.876,23.434,26.32c-2.888,14.445-28.89,20.223-60.989,16.05
			c-32.1-4.172-47.826-34.025-52.964-40.765c-5.135-6.742,12.199-50.075,17.334-53.125
			C2111.356,1644.104,2117.444,1654.077,2117.444,1654.077z"/>
		<path style="fill:#C9B9B3;" d="M2329.455,637.68c0,0-8.552,30.612-15.559,45.793c-7.006,15.183-5.808,33.867-5.252,45.253
			c0.552,11.386,0.258,24.774-3.374,43.771c0,0,1.225,5.781,3.698,16.013C2308.969,788.509,2323.8,747.881,2329.455,637.68z"/>
	</g>
	<g>
		<g>
			<path style="fill:#EEA886;" d="M1232.736,699.8c0,0,54.832,6.4,57.917,9.91c3.081,3.509,2.349,6.484-2.818,6.101
				c-5.163-0.382-53.263-4.636-53.263-4.636s62.86,18.568,66.054,20.848c1.875,1.334,0.795,7.155-2.008,7.206
				c-2.802,0.053-66.41-14.715-66.41-14.715s58.653,17.445,60.7,20.189c1.789,2.401-0.528,7.588-4.986,6.6
				c-4.463-0.989-60.031-14.04-60.031-14.04s41.701,15.437,41.983,18.873c0.176,2.102-0.521,7.159-11.136,2.83
				c-10.611-4.329-36.906-11.836-36.906-11.836L1232.736,699.8z"/>
		</g>
		<g>
			<g>
				<path style="fill:#EEA886;" d="M1167.895,702.389c0,0,18.255,0.949,23.837-8.284c4.744-7.854,16.337-14.97,19.903-17.167
					c4.768-2.938,16.408-17.179,19.774-11.458c3.366,5.718-18.119,24.32-21.903,29.066c-3.785,4.748,22.529,3.008,27.328,6.46
					c4.799,3.452,2.188,47.003-15.864,46.114c-18.056-0.887-35.924-13.793-39.172-13.315c-3.253,0.476-13.198-0.125-13.198-0.125
					L1167.895,702.389z"/>
			</g>
		</g>
		<g>
			<path style="fill:#D44040;" d="M1175.512,745.442c0,0-134.52-18.835-164.373-26.18c-13.801-3.395-31.979-22.447-49.255-44.844
				c-5.695-7.376-11.281-15.118-16.592-22.78c-0.016-0.016-0.016-0.032-0.016-0.032c-21.194-30.598-37.802-59.929-37.802-59.929
				S844.831,518.266,895.1,485.54c0,0,15.247-2.587,25.072,0.238c31.046,8.93,56.503,71.677,60.895,81.259
				c4.396,9.564,50.699,95.101,53.886,97.099c3.19,2,41.861,10.48,63.04,14.899c30.67,6.398,88.302,18.363,88.302,18.363
				L1175.512,745.442z"/>
		</g>
		<g>
			<path style="fill:#202338;" d="M743.683,1646.591c0,0-11.067,20.645-18.297,28.839c-7.231,8.194-34.918,22.843-35.068,47.179
				c-0.163,26.391,46.673,19.067,64.99,18.103c18.318-0.963,19.704-15.063,27.416-30.006c7.713-14.943,15.484-12.413,16.931-24.463
				c1.446-12.051-7.468-39.651-7.468-39.651H743.683z"/>
		</g>
		<g>
			<path style="fill:#202338;" d="M1022.514,1644.186c0,0,22.573,25.199,45.486,30.478c22.913,5.28,38.945,12.015,39.118,26.474
				c0.172,14.46-65.945,23.991-92.169,9.413c-39.133-21.758-43.114-15.198-47.451-26.075c-4.341-10.876,5.209-39.958,4.928-43.416
				C972.077,1636.786,1022.514,1644.186,1022.514,1644.186z"/>
		</g>
		<g>
			<path style="fill:#81807E;" d="M1019.977,1632.128c0,0,2.979,11.807,2.537,12.058c-0.442,0.248-51.635,6.349-50.089-3.126
				c1.257-7.682,3.049-16.033,3.049-16.033L1019.977,1632.128z"/>
		</g>
		<g>
			<path style="fill:#81807E;" d="M791.552,1638.62c0,0,2.143,11.265,1.729,11.534c-0.415,0.271-51.913,9.469-51.621,0.115
				c0.23-7.429,4.75-16.085,4.75-16.085L791.552,1638.62z"/>
		</g>
		<g>
			<path style="fill:#292C47;" d="M973.431,925.41c0,0,18.619,180.809,28.298,242.703c11.324,72.37,15.159,132.166,18.318,169.624
				c3.969,47.111,4.736,278.867,7.519,292.642c2.779,13.775-61.67,3.806-61.67,3.806s-31.708-302.813-43.537-352.988
				c-11.011-46.721-51.887-247.864-61.935-235.106c-10.049,12.758-22.51,234.73-29.953,271.578
				c-7.441,36.845-30.078,325.316-30.078,325.316s-51.292,10.215-64.935-1.332c0,0-6.212-248.604-1.47-317.686
				c1.806-26.326-30.847-315.668,11.024-432.149C767.142,830.257,973.431,925.41,973.431,925.41z"/>
		</g>
		<g>
			<path style="fill:#323657;" d="M759.259,788.58c-1.928,34.767-9.521,71.43-25.285,109.025c0,0-49.445,20.432-73.317-10.55
				c-9.404-12.197-17.6-53.198-21.062-105.497c-5.345-80.527,0.569-187.842,30.684-258.004
				C670.28,523.554,767.649,638.298,759.259,788.58z"/>
		</g>
		<g>
			<path style="fill:#E8734D;" d="M759.259,788.58c-1.928,34.767-9.521,71.43-25.285,109.025c0,0-49.445,20.432-73.317-10.55
				c-9.404-12.197-17.6-53.198-21.062-105.497L759.259,788.58z"/>
		</g>
		<g>
			<path style="fill:#B83838;" d="M970.773,894.947l3.644,33.239c0,0-69.847,32.493-248.127,51.629l-0.46-30.068L970.773,894.947z"
				/>
		</g>
		<g>
			<path style="fill:#D44040;" d="M842.162,477.927c0,0,21.837,2.793,73.129,6.899c8.956,6.237,37.333,80.043,40.276,99.357
				c2.943,19.312,4.525,95.289-0.431,126.353c-4.959,31.064,32.205,168.717,19.281,191.524c0,0-126.082,52.271-253.759,49.388
				c0,0,1.397-125.899-8.079-166.723c-12.14-52.298-40.768-172.721-40.768-172.721s-10.319-94.659,2.793-101.461
				c29.55-15.332,101.89-27.722,101.89-27.722L842.162,477.927z"/>
		</g>
		<g>
			<path style="fill:#B83838;" d="M871.643,481.295c0,0,1.951-17.812-52.948-16.003c-54.901,1.807-90.434,17.999-89.784,33.738
				c0.649,15.738,143.841,39.843,143.841,39.843L871.643,481.295z"/>
		</g>
		<g>
			<path style="fill:#EEA987;" d="M794.775,284.07c0,0,73.476-36.517,79.597,65.675c6.12,102.189-10.703,114.446-62.555,105.643
				c-51.854-8.803-62.955-72.524-72.818-102.69C729.134,322.53,770.232,291.191,794.775,284.07z"/>
		</g>
		<g>
			<path style="fill:#EEA987;" d="M856.485,492.675c0,0-17.469,10.046-79.991-9.854c0,0-2.702-41.11-18.513-78.084
				c-15.813-36.974,85.582,42.382,85.582,42.382c-0.891,0.783-0.666,4.624,0.456,9.895c0.951,4.468,2.543,9.961,4.64,15.482
				C853.385,484.918,852.36,482.732,856.485,492.675z"/>
		</g>
		<g>
			<path style="fill:#292C47;" d="M755.042,401.986c0,0-3.13-27.138,7.897-30.849c11.026-3.712,18.529,11.367,18.529,11.367
				l9.042-1.464c0,0-11.081-26.653-0.988-34.119c10.091-7.464,75.104-8.828,82.194-18.962c7.091-10.134-10.535-63.913-28.69-67.433
				c-18.153-3.517-67.339-9.323-94.915,21.095c0,0-24.974,14.118-23.721,35.828C725.641,339.161,744.272,388.244,755.042,401.986z"
				/>
		</g>
		<g>
			<path style="fill:#A77860;" d="M848.659,472.496c-60.373-3.611-72.853-36.386-73.041-36.898
				c26.242,27.258,68.401,21.416,68.401,21.416C844.97,461.482,846.562,466.975,848.659,472.496z"/>
		</g>
		<g>
			<path style="fill:#EEA987;" d="M774.487,358.234c-4.341-8.598-23.302-5.423-19.825,8.571
				c3.477,13.995,21.594,34.18,27.489,29.399C788.043,391.423,780.472,370.09,774.487,358.234z"/>
		</g>
		<g>
			<path style="fill:#EFAA88;" d="M687.937,996.995c0,0-3.538-5.558-3.898-8.744c0,0-0.213-5.846-0.617-9.992
				c-0.133-1.315-0.278-2.459-0.448-3.186c-0.71-3.045-3.18-9.516-2.833-17.309c0.342-7.781,4.343-35.158,4.343-35.158l23.934-0.726
				l19.766-6.388c0,0,23.021,41.358,23.539,48.65c0.045,0.714,0.066,1.418,0.033,2.082c-0.159,6.218-2.891,10.773-3.345,14.026
				c-0.176,1.194-2.708,12.942-5.894,14.596c-4.421,2.304-8.421,2.106-11.402,0.442c0,0-8.857,4.125-15.23,2.494
				c0,0-8.045,4.07-15.394-0.215C700.491,997.567,691.864,1000.778,687.937,996.995z"/>
		</g>
		<g>
			<path style="fill:#D44040;" d="M704.602,504.763c8.443,1.638,20.24,19.233,20.754,57.805c0.55,41.386-9.63,60.937-13.276,71.288
				c-3.644,10.351-25.359,78.886-23.57,88.125c4.658,24.062,15.537,87.835,17.177,92.568c2.8,8.09,25.416,103.057,25.416,103.057
				l-48.709,21.48c0,0-29.481-106.373-39.9-138.255c-4.178-12.792-14.582-48.073-16.49-84.752
				c-1.841-35.381,9.478-116.357,11.745-123.044C640.014,586.346,648.78,493.936,704.602,504.763z"/>
		</g>
		<g>
			<path style="fill:#323657;" d="M709.695,770.201l-13.476-11.478c47.21-55.422,62.481-113.871,45.392-173.726
				c-12.787-44.781-48.112-81.828-48.382-82.112l18.844-5.771c1.219,1.286,32.597,34.119,46.56,83.021
				c8.243,28.869,9.566,58.044,3.932,86.713C755.566,702.461,737.778,737.234,709.695,770.201z"/>
		</g>
		<g>
			<path style="fill:#323657;" d="M969.254,669.841l-11.183-0.435c0.028-0.55-6.869-26.34-14.321-61.082
				c-6.87-32.031-28.98-85.329-65.362-126.66l19.015,1.683c38.832,44.116,54.997,88.073,62.242,122.135
				C967.497,642.406,969.313,668.74,969.254,669.841z M958.072,669.407L958.072,669.407
				C958.072,669.407,958.072,669.411,958.072,669.407L958.072,669.407z"/>
		</g>
		<g>
			<path style="fill:#323657;" d="M969.254,669.841c0,0-0.016,17.136-12.22,22.749c0,0,1.037-18.577-1.667-34.196
				C952.702,642.998,969.254,669.841,969.254,669.841z"/>
		</g>
		<g>
			<path style="fill:#323657;" d="M878.389,481.665c0,0,8.73-1.085,19.015,1.683C897.403,483.348,885.062,486.675,878.389,481.665z"
				/>
		</g>
		<g>
			<path style="fill:#323657;" d="M693.229,502.885c0,0,7.17-4.955,18.844-5.771C712.073,497.114,705.787,504.071,693.229,502.885z"
				/>
		</g>
	</g>
</g>
</svg>
